<?xml version="1.0"?>
<svg xmlns:rdf="http://www.w3.org/1999/02/22-rdf-syntax-ns#" xmlns="http://www.w3.org/2000/svg" xmlns:cc="http://creativecommons.org/ns#" xmlns:dc="http://purl.org/dc/elements/1.1/" xmlns:svg="http://www.w3.org/2000/svg" id="svg2904" viewBox="0 0 394.59 500" version="1.1">
  <g id="layer1" transform="translate(-254.06 -303.13)">
    <g id="g3845" transform="matrix(1.2582 0 0 1.2582 -65.588 -207.33)">
      <path id="rect3008" opacity=".99" d="m405 472v32.719h-16.75v11.719h16.75v25.062h-58.531v11.719h58.531v121.88l-16.75-9.6562v11.719l16.75 9.6562v49.469h11.719v-42.719l16.781 9.6562v-11.719l-16.781-9.6562v-128.62h58.562v-11.719h-58.562v-25.062h16.781v-11.719h-16.781v-32.719l-11.72-0.01zm-76.656 59.156c-2.853 0.00003-5.4986 0.71364-7.9062 2.125-2.4077 1.4114-4.2826 3.4026-5.6562 5.9688-1.3737 2.5662-2.0625 5.3732-2.0625 8.4375 0 3.804 1.0419 7.1298 3.125 9.9375 2.7926 3.7738 6.7254 5.6562 11.812 5.6562 2.8228-0.00001 5.2595-0.63826 7.3125-1.9062 2.0529-1.268 3.8665-3.2678 5.4062-6l-0.71875-0.4375c-1.8265 2.536-3.5067 4.2096-5.0312 5.0625-1.5246 0.85287-3.2887 1.2812-5.2812 1.2812-2.2945 0-4.3362-0.53815-6.125-1.625s-3.1094-2.6496-4-4.6875c-0.89063-2.0378-1.3438-4.4412-1.3438-7.2188-0.00001-3.3662 0.4628-6.1732 1.4062-8.4375 0.94344-2.2642 2.2609-3.9347 3.9062-4.9688 1.6454-1.034 3.4621-1.5312 5.5-1.5312 2.4303 0.00003 4.514 0.68887 6.25 2.0625 1.7359 1.3737 3.0953 3.5941 4.0312 6.7188h0.6875l-0.6875-10.438h-0.8125c-0.16608 0.7246-0.4513 1.3112-0.84375 1.7188-0.30193 0.28684-0.65496 0.43753-1.0625 0.4375-0.27174 0.00003-0.70978-0.16788-1.3438-0.5-2.1586-1.0868-4.3435-1.6562-6.5625-1.6562zm193.5 0c-2.853 0.00003-5.4986 0.71364-7.9062 2.125-2.4077 1.4114-4.2826 3.4026-5.6562 5.9688-1.3737 2.5662-2.0625 5.3732-2.0625 8.4375 0 3.804 1.0419 7.1298 3.125 9.9375 2.7926 3.7738 6.7254 5.6562 11.812 5.6562 2.8228-0.00001 5.2595-0.63826 7.3125-1.9062 2.0529-1.268 3.8665-3.2678 5.4062-6l-0.71875-0.4375c-1.8265 2.536-3.5067 4.2096-5.0312 5.0625-1.5246 0.85287-3.2887 1.2812-5.2812 1.2812-2.2945 0-4.3362-0.53815-6.125-1.625s-3.1094-2.6496-4-4.6875c-0.89062-2.0378-1.3438-4.4412-1.3438-7.2188-0.00001-3.3662 0.4628-6.1732 1.4062-8.4375 0.94344-2.2642 2.2609-3.9347 3.9062-4.9688 1.6454-1.034 3.4621-1.5312 5.5-1.5312 2.4303 0.00003 4.514 0.68887 6.25 2.0625 1.7359 1.3737 3.0953 3.5941 4.0312 6.7188h0.6875l-0.6875-10.438h-0.8125c-0.16607 0.7246-0.4513 1.3112-0.84375 1.7188-0.30193 0.28684-0.65495 0.43753-1.0625 0.4375-0.27173 0.00003-0.70978-0.16788-1.3438-0.5-2.1586-1.0868-4.3435-1.6562-6.5625-1.6562zm-225.12 0.71875v0.84375h1.0625c0.72456 0.00003 1.4296 0.169 2.0938 0.53125 0.46794 0.27174 0.78654 0.5914 0.9375 0.96875 0.19625 0.49816 0.28125 1.539 0.28125 3.0938v19.844c0 1.8416-0.16897 2.9857-0.53125 3.4688-0.57362 0.73966-1.5133 1.125-2.7812 1.125h-1.0625v0.8125h13.156v-0.8125h-1.125c-0.72458 0-1.4134-0.20022-2.0625-0.5625-0.48305-0.27171-0.78656-0.59137-0.9375-0.96875-0.19626-0.49814-0.31251-1.5077-0.3125-3.0625v-19.844c-0.00001-1.8416 0.18511-3.0169 0.5625-3.5 0.5736-0.73963 1.4971-1.0937 2.75-1.0938h1.125v-0.84375h-13.156zm175.25 0v0.84375c1.4944 0.0453 2.8215 0.44032 3.9688 1.1875 1.1472 0.74723 2.5421 2.3186 4.1875 4.7188l6.0625 8.8438-7.25 9.1562c-1.0869 1.3737-2.0609 2.3983-2.9062 3.0625-0.84533 0.66418-1.7516 1.17-2.6875 1.5625-0.55852 0.24152-1.1989 0.4245-1.9688 0.5v0.8125h10.875v-0.8125c-1.1472-0.0453-1.905-0.2455-2.3125-0.5625-0.40758-0.317-0.62501-0.70445-0.625-1.1875-0.00001-0.31699 0.0829-0.64314 0.21875-0.9375 0.13584-0.29435 0.53946-0.87447 1.2188-1.75l6.4062-8.2188 5.2188 7.875c0.72455 1.0718 1.1443 1.7434 1.25 2 0.13579 0.34719 0.18747 0.68407 0.1875 1.0312-0.00003 0.28681-0.0775 0.56449-0.28125 0.84375-0.20381 0.27926-0.46428 0.48914-0.78125 0.625-0.42269 0.16605-1.0932 0.26615-1.9688 0.28125v0.8125h13.188v-0.8125c-1.3586-0.0755-2.492-0.47048-3.375-1.1875-0.8831-0.71702-2.236-2.4391-4.0625-5.1562l-6.5625-9.8438 6.0625-7.7812c1.2378-1.585 2.227-2.6613 2.9062-3.25 0.67926-0.58868 1.4036-1.059 2.2188-1.4062 0.5434-0.22639 1.2646-0.36095 2.125-0.40625v-0.84375h-10.906v0.84375c1.0868 0.0151 1.809 0.0905 2.1562 0.21875 0.34716 0.12834 0.6173 0.33928 0.84375 0.65625 0.18111 0.24155 0.28123 0.52678 0.28125 0.84375-0.00002 0.31703-0.0754 0.63563-0.21875 0.9375-0.14343 0.30193-0.52228 0.84114-1.1562 1.6562l-5.4688 6.9062-4.6875-7.0312c-0.72458-1.0717-1.0938-1.879-1.0938-2.4375-0.00002-0.42263 0.21093-0.80904 0.65625-1.1562 0.44529-0.34716 1.2924-0.54845 2.5-0.59375v-0.84375h-14.219z"/>
      <path id="path3017" opacity=".99" stroke-linejoin="round" d="m411.22 407.72c-14.399 0-26.062 11.664-26.062 26.062 0 4.8195 1.3138 9.3456 3.5938 13.219h-0.0312c-14.399 0-26.062 11.664-26.062 26.062 0 12.397 8.6569 22.787 20.25 25.438v21h-36.031c-2.6082-11.642-13.006-20.344-25.438-20.344-14.179 0-25.714 11.311-26.062 25.406-3.8813-2.2933-8.3841-3.625-13.219-3.625-14.399 0-26.094 11.664-26.094 26.062 0 14.399 11.695 26.062 26.094 26.062 4.8195 0 9.3144-1.2826 13.188-3.5625 0 14.399 11.695 26.062 26.094 26.062 12.295 0 22.597-8.5184 25.344-19.969h36.125v134.66c-11.785 2.5075-20.594 12.999-20.594 25.531 0 14.399 11.664 26.062 26.062 26.062h0.0312c-2.2799 3.8731-3.5938 8.3993-3.5938 13.219 0 14.399 11.664 26.062 26.062 26.062 14.399 0 26.094-11.664 26.094-26.062 0-4.8347-1.3317-9.3687-3.625-13.25 14.08-0.36522 25.406-11.863 25.406-26.031 0-12.261-8.4978-22.555-19.906-25.344v-134.84h36.125c2.7472 11.45 13.048 19.969 25.344 19.969 14.399 0 26.094-11.664 26.094-26.062 3.8731 2.2799 8.368 3.5625 13.188 3.5625 14.399 0 26.094-11.664 26.094-26.062 0-14.399-11.695-26.062-26.094-26.062-4.8347 0-9.3374 1.3317-13.219 3.625-0.34881-14.095-11.883-25.406-26.062-25.406-12.431 0-22.829 8.702-25.438 20.344h-36.031v-21c11.591-2.6565 20.25-13.047 20.25-25.438 0-14.169-11.326-25.666-25.406-26.031 2.2933-3.8813 3.625-8.4153 3.625-13.25 0-14.399-11.695-26.062-26.094-26.062z" stroke="#000" stroke-width="4" fill="none"/>
    </g>
  </g>
  <metadata>
    <rdf:RDF>
      <cc:Work>
        <dc:format>image/svg+xml</dc:format>
        <dc:type rdf:resource="http://purl.org/dc/dcmitype/StillImage"/>
        <cc:license rdf:resource="http://creativecommons.org/licenses/publicdomain/"/>
        <dc:publisher>
          <cc:Agent rdf:about="http://openclipart.org/">
            <dc:title>Openclipart</dc:title>
          </cc:Agent>
        </dc:publisher>
        <dc:title>Crucifix</dc:title>
        <dc:date>2011-04-24T13:11:35</dc:date>
        <dc:description>Christianity, christ, clip art, clipart, cross, crucifix, relic, religion, sign, symbol, </dc:description>
        <dc:source>http://openclipart.org/detail/133849/crucifix-by-rones</dc:source>
        <dc:creator>
          <cc:Agent>
            <dc:title>rones</dc:title>
          </cc:Agent>
        </dc:creator>
        <dc:subject>
          <rdf:Bag>
            <rdf:li>Christianity</rdf:li>
            <rdf:li>christ</rdf:li>
            <rdf:li>clip art</rdf:li>
            <rdf:li>clipart</rdf:li>
            <rdf:li>cross</rdf:li>
            <rdf:li>crucifix</rdf:li>
            <rdf:li>relic</rdf:li>
            <rdf:li>religion</rdf:li>
            <rdf:li>sign</rdf:li>
            <rdf:li>symbol</rdf:li>
          </rdf:Bag>
        </dc:subject>
      </cc:Work>
      <cc:License rdf:about="http://creativecommons.org/licenses/publicdomain/">
        <cc:permits rdf:resource="http://creativecommons.org/ns#Reproduction"/>
        <cc:permits rdf:resource="http://creativecommons.org/ns#Distribution"/>
        <cc:permits rdf:resource="http://creativecommons.org/ns#DerivativeWorks"/>
      </cc:License>
    </rdf:RDF>
  </metadata>
</svg>
