<?xml version="1.0"?>
<svg xmlns:rdf="http://www.w3.org/1999/02/22-rdf-syntax-ns#" xmlns="http://www.w3.org/2000/svg" xmlns:cc="http://creativecommons.org/ns#" xmlns:dc="http://purl.org/dc/elements/1.1/" xmlns:svg="http://www.w3.org/2000/svg" id="svg1" viewBox="0 0 567.27 821.61" version="1.0">
  <g id="g1887" stroke="#000" transform="translate(-88.412 -113.94)">
    <path id="path1760" d="m317.59 421.25l-14.25 154.72 198.5-50.89-41.74-124.19-142.51 20.36z" fill-rule="evenodd" transform="matrix(.86772 0 0 .86772 4.8751 52.991)" stroke-width="5.7622" fill="#b4b4b4"/>
    <path id="path1745" stroke-linejoin="round" d="m483.23 544.91c-8.91 58.97-19.28 101.88-59.44 97.48-110.26-12.02-107.44-30.12-92.48-91.92 14.65-60.54 38.61-104.19 79.14-103.65 46.24 0.62 81.04 43.43 72.78 98.09z" transform="matrix(.98296 0 0 1.012 -50.688 -14.671)" stroke-linecap="round" stroke-width="5.0133" fill="#fff"/>
    <path id="path1741" d="m301.59 364.97c-0.28 5.08 3.28 11.26 2.16 15.11-0.56 1.9-6.13 0.25-7.2 2.16-2.29 4.09-2.99 10.56-2.88 15.84 0.13 6.48 1.98 13.06 3.6 19.43 1.74 6.83 2.31 15.45 6.48 20.16 3.27 3.69 12.13 1.42 15.83 5.04 5.9 5.74 8.64 15.35 12.96 23.03 1.44 10.08 2.88 20.15 4.32 30.23-0.24 19.19 10.32 36.95 21.59 51.1 8.4 1.2 16.08 0.24 24.47 1.44 25.44-7.19 43.67-23.75 61.19-45.34 6.23-16.08 8.15-29.99 7.91-41.75 0-5.28-0.91-10.79 0-15.84 0.53-2.87 2.23-6.52 4.32-7.91 1.51-1.01 4.99 1.94 6.48 0.72 3.79-3.1 7.64-8.52 9.36-13.68 4.04-12.12 7.2-25.61 7.92-38.15 0.24-4.26-2.54-9.23-5.04-12.23-1.1-1.32-5.65 1.21-5.76-0.72l-2.16-38.87-84.22-33.11-79.89 37.43-1.44 25.91z" fill-rule="evenodd" transform="matrix(.86772 0 0 .86772 4.8751 52.991)" stroke-width="5.7622" fill="#fff"/>
    <path id="path1117" stroke-linejoin="round" d="m298.25 346.94c27.83-44.79 139.12-60.06 167.96 5.09 12.56-41.06 8.82 5.43 43.77-103.83-20.7-67.52-61.75-128.94-123.17-175.08-72.27 47.5-106.88 111.29-125.2 169.99 12.89 37.66 21.71 65.15 36.64 103.83z" fill-rule="evenodd" transform="matrix(.86772 0 0 .86772 4.8751 52.991)" stroke-linecap="round" stroke-width="5.7622" fill="#fff"/>
    <path id="path1739" stroke-linejoin="round" d="m276.88 287.9c66.5-50.56 163.54-46.15 217.83 7.12-7.46 24.77-17.98 48.53-25.45 73.29-20.35-41.73-124.18-59.03-168.97-6.1-8.14-24.09-15.27-50.22-23.41-74.31z" fill-rule="evenodd" transform="matrix(.86772 0 0 .86772 4.8751 52.991)" stroke-linecap="round" stroke-width="5.7622" fill="#b4b4b4"/>
    <path id="path1742" d="m317.42 536.28c-5.99 18.95-8.39 42.22-7.19 58.3 48.46-2.88 96.93-5.76 145.39-8.64 11.28-32.15 21.12-74.38 18.72-102.93 8.87 10.08 17.15 21.99 26.63 30.23 1.56 1.36 5.18-2.73 6.48-1.44 3.26 3.27 2.73 11.95 7.2 15.12 29.6 21.06 65.23 36.03 95.01 57.58 13.64 9.88 26.8 22.17 35.27 36.71 28 48.08 56.56 98.43 74.13 151.16 16.5 49.48 18.72 103.65 28.08 155.47-50.63 4.32-71.02 43.19-106.53 64.78 0.24 7.2 0.48 14.38 0.72 21.58-153.08-1.2-306.15 1.4-459.22 0.2 4.79-32.42 9.59-68.57 14.39-100.96-28.55-8.87-66.69-9.04-85.65-26.63-14.15-13.12 2.18-30.04-8.64-47.5-15.707-25.36 33.61-65.84 46.07-94.3 9.38-21.44 5.52-51.68 14.39-73.41 10.81-26.49 26.58-54.99 48.23-73.42 29.93-25.48 68.14-47.51 106.52-61.9z" fill-rule="evenodd" transform="matrix(.86772 0 0 .86772 4.8751 52.991)" stroke-width="5.7622" fill="#b4b4b4"/>
    <path id="path1743" stroke-linejoin="round" d="m335.42 593.14c-3.12 16.8-5.34 35.67-7.92 52.54-19 123.61-20.63 244.07-30.95 367.12 25.43 0.7 50.87-0.5 76.3 0.2 6.48-118.73 4.75-230.01 19.43-352.2 2.85-23.57 6.72-47.03 10.08-70.54-21.83 1.68-45.11 1.2-66.94 2.88z" fill-rule="evenodd" transform="matrix(.86772 0 0 .86772 4.8751 52.991)" stroke-linecap="round" stroke-width="5.7622" fill="#fff"/>
    <path id="path1751" d="m616.13 730.62c4.73 20.23 27.77 31.12 28.91 52.87 3.9 20.94 18.15 38.13 21.19 59.39 3.85 17.05 8.38 35.54-0.42 51.92-3.57 13.17-8.04 28.23-23.38 31.91-16.5 7.34-34.62 13.17-52.81 12.19-22.7-5.97-22.16-32.79-28.4-50.84-9.76-21.52-7.03-45.43-8.6-68.35-0.95-18.5-1.29-40.05 7.86-56.46 8.06-16.46 16.51-25.07 29.35-29.14 9.49-1.67 22.58-3.18 26.3-3.49z" fill-rule="evenodd" transform="matrix(.86772 0 0 .86772 4.8751 52.991)" stroke-width="5.7622" fill="#fff"/>
    <path id="path1747" d="m613.81 314.38c-8.44-0.85-20.86 2.6-26.47 9.15-24.29 28.44-26.27 71.55-26.46 108.91l-3.07 581.26h23.44l5.06-548.67c0.09-9.6 4.64 16.15 24.44 15.25 19.67-1.39 28.72-22.6 34.63-37.66 7.66-19.55 7.45-44.4 6.09-66.15-1.02-16.25-5.22-34.66-13.22-47.85-4.56-7.51-15.91-13.39-24.44-14.24zm-3.56 27.46c7.02 0 12.72 27.38 12.72 61.1 0 33.71-5.7 61.06-12.72 61.06-19.24 1.02-19.52-30.6-16.81-63.12 3.92-33.49 9.79-59.04 16.81-59.04z" fill-rule="evenodd" transform="matrix(.86772 0 0 .86772 4.8751 52.991)" stroke-width="5.7622" fill="#fff"/>
    <path id="path1744" d="m585.9 786.04c10.56 3.36 24 1.68 31.67-5.04 1.2-8.87 4.57-18.09 3.6-26.63-0.71-6.34-8.31-11.77-8.63-17.99-0.4-7.46 5.03-15.24 6.47-23.04 0.96-5.16-0.36-10.71 0.72-15.83 1.56-7.36 7.66-15.07 7.2-21.59-0.26-3.8-4.39-8.51-5.76-12.24-1.27-3.47-0.14-6.15-2.16-9.36-5.66-9.02-15.29-18.19-24.47-24.47-4.49-3.08-11.49-4.89-16.55-3.6-7.17 1.83-13.44 11.52-20.16 12.96-3.36 0.72-6.79-6.71-10.07-6.48-3.68 0.25-9.26 4.37-10.8 7.92-1.58 3.64 0.17 9.36 1.44 13.67 1.13 3.84 4.9 6.93 5.76 10.8 1.06 4.77-0.85 10.35 0 15.11 0.34 1.96 3.87 3.37 3.6 5.04-0.45 2.65-5.18 4.92-5.76 7.92-0.86 4.44 0.13 10.12 1.44 14.4 0.37 1.24 3.3 1.06 3.6 2.16 0.42 1.54-1.34 3.81-1.44 5.75-0.14 2.38-0.77 5.91 0.72 7.2 2.11 1.83 6.76 2.52 10.07 2.16 5.57-0.6 12.11-6.15 16.56-5.04 3.23 0.81 4.65 7.04 6.48 10.8 2.25 4.63 5.19 9.42 5.75 14.39 0.64 5.59-2.26 11.52-2.16 17.28 0.14 7.92 1.92 15.83 2.88 23.75z" fill-rule="evenodd" transform="matrix(.86772 0 0 .86772 4.8751 52.991)" stroke-width="5.7622" fill="#fff"/>
    <path id="path1756" stroke-linejoin="round" d="m131.72 873.86c4.56 8.63 9.12 17.27 13.68 25.91-0.72 4.08-1.44 8.16-2.16 12.23 15.59 17.04 31.19 34.07 46.78 51.11 4.32 9.6 5.39 23.7 12.96 28.79 8.5 5.71 26.39 3.84 35.99-3.6 13.43-38.39 24.71-60.94 37.43-95.01-4.32-7.92-7.04-17.13-12.96-23.75-10.16-11.37-23.51-20.16-35.27-30.23-15.59 0.24-29.99-0.72-55.42 7.19-23.92 7.45-34.55 14.64-41.03 27.36z" fill-rule="evenodd" transform="matrix(.86772 0 0 .86772 4.8751 52.991)" stroke-linecap="round" stroke-width="5.7622" fill="#fff"/>
    <path id="path1757" d="m304.47 873.84c-25.92 0.48-23.33-1.07-49.25-0.59-19.89 12.31-35.71 34.8-39.32 55.25 11.52 6.96 10.83 6.79 22.35 13.75 7.44 4.5 6.19 17.15 12.25 23.03 10.02 9.72 23.58 17.94 35.97 23.75 2.96 1.39 7.29-0.55 10.09-2.15 2.24-1.28 2.87-5.23 5.03-6.5 1.91-1.13 5.51 0.78 7.19-0.72 5.03-4.5 9.42-11.15 12.97-17.28 1.72-2.98 1.25-7.07 2.87-10.07 1.5-2.76 4.98-4.42 6.47-7.19 1.62-2.99 0.84-7.92 2.88-10.09 1.56-1.67 7.17 0.55 7.94-1.44 1.63-4.25-2.03-12.04-0.72-17.28 0.85-3.4 7.4-5.68 7.19-8.62-0.27-3.77-4.33-10.85-5.76-15.13-1.21-3.64 0.19-6.47-2.15-8.62-3.66-3.37-12.56-2.59-18.72-4.32-5.84-1.63-11.21-5.89-17.28-5.78zm2.62 23.5c2.96-0.33 6.79 0.05 10.79 1.25 7.98 2.42 16.62 12.3 11.57 12.38-1.85 0.03-7.34 2.44-15.33 0.03-7.98-2.41-13.62-7.14-12.59-10.56 0.52-1.71 2.61-2.77 5.56-3.1z" fill-rule="evenodd" transform="matrix(.86772 0 0 .86772 4.8751 52.991)" stroke-width="5.7622" fill="#fff"/>
    <path id="path1761" d="m547.64 521.51c17.82 0.17 35.63 0.34 53.45 0.51-0.17 3.06 0.6 6.83-0.51 9.16-0.59 1.23-4.18 0.07-4.58 1.53-2.83 10.25-6.75 20.81-6.62 31.56 0.04 2.99 8.9 7.79 8.65 10.68-0.76 8.82-8.31 17.82-11.19 26.98-9.84 0-18.67-0.51-28.51-0.51-3.39-9.16-9.58-18.76-10.18-27.48-0.25-3.67 9.72-7.34 10.18-11.2 1.24-10.39-2.65-22.11-5.09-31.56-0.45-1.74-5.36 0.79-6.1-0.51-1.12-1.93 0.34-6.1 0.5-9.16z" fill-rule="evenodd" transform="matrix(.86772 0 0 .86772 4.8751 52.991)" stroke-width="5.7622" fill="#fff"/>
  </g>
  <metadata>
    <rdf:RDF>
      <cc:Work>
        <dc:format>image/svg+xml</dc:format>
        <dc:type rdf:resource="http://purl.org/dc/dcmitype/StillImage"/>
        <cc:license rdf:resource="http://creativecommons.org/licenses/publicdomain/"/>
        <dc:publisher>
          <cc:Agent rdf:about="http://openclipart.org/">
            <dc:title>Openclipart</dc:title>
          </cc:Agent>
        </dc:publisher>
        <dc:title>bishop</dc:title>
        <dc:date>2008-08-20T17:51:53</dc:date>
        <dc:description>bishop, bishop, catholic, christian, church, clergy, clip art, clipart, mitre, religion, religious, </dc:description>
        <dc:source>http://openclipart.org/detail/18521/bishop-by-aj</dc:source>
        <dc:creator>
          <cc:Agent>
            <dc:title>AJ</dc:title>
          </cc:Agent>
        </dc:creator>
        <dc:subject>
          <rdf:Bag>
            <rdf:li>bishop</rdf:li>
            <rdf:li>catholic</rdf:li>
            <rdf:li>christian</rdf:li>
            <rdf:li>church</rdf:li>
            <rdf:li>clergy</rdf:li>
            <rdf:li>clip art</rdf:li>
            <rdf:li>clipart</rdf:li>
            <rdf:li>mitre</rdf:li>
            <rdf:li>religion</rdf:li>
            <rdf:li>religious</rdf:li>
          </rdf:Bag>
        </dc:subject>
      </cc:Work>
      <cc:License rdf:about="http://creativecommons.org/licenses/publicdomain/">
        <cc:permits rdf:resource="http://creativecommons.org/ns#Reproduction"/>
        <cc:permits rdf:resource="http://creativecommons.org/ns#Distribution"/>
        <cc:permits rdf:resource="http://creativecommons.org/ns#DerivativeWorks"/>
      </cc:License>
    </rdf:RDF>
  </metadata>
</svg>
