<?xml version="1.0"?>
<svg xmlns:rdf="http://www.w3.org/1999/02/22-rdf-syntax-ns#" xmlns="http://www.w3.org/2000/svg" xmlns:cc="http://creativecommons.org/ns#" xmlns:dc="http://purl.org/dc/elements/1.1/" xmlns:svg="http://www.w3.org/2000/svg" id="svg2137" viewBox="0 0 556.55 794.1" version="1.0">
  <g id="g2312" stroke="#000" stroke-width="5.6671" transform="translate(-93.77 -129.13)">
    <path id="path2209" stroke-linejoin="round" d="m590.4 627.89a55.477 96.703 0 1 1 -110.96 0 55.477 96.703 0 1 1 110.96 0z" transform="matrix(.88229 0 0 .88229 21.843 12.896)" stroke-linecap="round" fill="#969696"/>
    <path id="path2215" fill-rule="evenodd" fill="#fff" transform="matrix(.88229 0 0 .88229 21.843 12.896)" d="m142.52 534.12l-57.586 404.52c-4.271 30 15.906 67.96 35.986 83.46 15.91 12.3 73.11-21.7 71.98 0l25.91-498.06-76.29 10.08z"/>
    <path id="path2214" stroke-linejoin="round" d="m148.91 549.95l-31.22 335.42c-2.36 25.41 28.54 40.45 37.47 63.34 7.72 19.82 5.66 49.41 12.49 57.59 3.58 4.3 17.65-8.61 18.73-20.16l39.96-426.11-77.43-10.08z" fill-rule="evenodd" transform="matrix(.88229 0 0 .88229 21.843 12.896)" stroke-linecap="round" fill="#b4b4b4"/>
    <path id="path2218" stroke-linejoin="round" d="m321.74 266.36s-0.22-50.91 11.52-80.62c11.8-29.85 22.31-37.43 34.55-42.46 18.07-7.44 40.11-10.91 56.86-7.2 21.16 4.69 41.81 18.69 56.87 32.39 6.3 5.73 7.87 20.11 3.59 28.07-18.28 34.03-47.5 65.26-71.25 97.89-30.72-9.36-61.43-18.71-92.14-28.07z" fill-rule="evenodd" transform="matrix(.88229 0 0 .88229 21.843 12.896)" stroke-linecap="round" fill="#b4b4b4"/>
    <path id="path2217" stroke-linejoin="round" d="m316.41 277.8c7.67-10.07 19.91-26.13 24.05-37.35 3.29-8.93-2.26-20.57-0.72-30.23 0.86-5.46 3.71-12.13 7.92-15.12 4.9-3.49 13.84-11.2 19.43-4.32 8.56-6.88 11.25-23.72 20.87-28.07 12.69-5.73 32.03-6.07 46.07-2.16 13.55 3.77 26.05 15.34 36.71 25.19 5.17 4.78 9.83 12 10.8 18.72 1.19 8.39-1.67 18.49-4.32 26.63-0.71 2.17-5.16 2.22-5.76 4.32-1.32 4.62 1.31 11.02 0 15.83-0.85 3.11-5.7 4.79-6.48 7.92-1.38 5.51 2.03 13.62 0 18-1.09 2.33-7.48 0.01-9.36 2.15-3.16 3.62-3.57 10.32-5.76 15.12-0.21 0.48-1.32 0.22-1.43 0.72-0.85 3.58 0.09 8.19-1.44 11.52-1.35 2.91-6.2 4.18-7.2 7.19-1.64 4.91-10.7 14.3-11.92 19.61-1.42 6.21 8.33 10.33 4 14.94-14.14 15.07-32.15 27.36-48.23 41.03 0 0-76.29-95.01-76.29-97.89s9.06-13.75 9.06-13.75z" fill-rule="evenodd" transform="matrix(.88229 0 0 .88229 21.843 12.896)" stroke-linecap="round" fill="#fff"/>
    <path id="path2207" stroke-linejoin="round" d="m172.03 1027.9c1.7-232.73 24.27-478.45 47.84-713.54 1.54-15.32 15.35-33.04 27.49-37.66 11.95-4.54 30.52 10.63 44.79 10.18 7.1-0.22 17.98-10.18 24.43-14.25 7.12 21.38 23.02 41.75 40.71 57 11.83 10.2 28.09 19.48 42.76 21.38 11.46 1.49 27.82-1.36 35.62-11.2 14.25 10.52 31.62 18.53 42.76 31.56 8.88 10.39 12.37 25.48 17.3 38.68 4.57 12.24 10 24.66 11.2 37.66 8.64 93.88 5.23 189.65 18.32 282.99 12.7 90.56 43.28 179.51 59.04 268.73 1.2 6.77-6.32 12.67-8.14 19.37-0.89 3.2 0 6.8 0 10.1-134.71-0.3-269.41-0.6-404.12-1z" fill-rule="evenodd" transform="matrix(.88229 0 0 .88229 21.843 12.896)" stroke-linecap="round" fill="#fff"/>
    <path id="path2286" stroke-linejoin="round" d="m445.01 338.89c-34.38 113.41-216.36 329.62-261.94 331.06-3.63 50.41-7.25 91.67-10.87 142.08 130.52-60.97 300.74-271.58 330.49-399.74 1.98-2.43-8.19-32.89-24.59-49.03-16.9-16.65-19.68-15.91-33.09-24.37z" fill-rule="evenodd" transform="matrix(.88229 0 0 .88229 21.843 12.896)" stroke-linecap="round" fill="#fff"/>
    <path id="path2213" stroke-linejoin="round" d="m354.85 491.65c8.77-8.2 40.34-5.3 59.75-2.88 15.14 1.89 38.37 7.18 43.9 15.84 3.82 5.98-8.09 24.13-15.83 28.07-6.89 3.5-12.51 1.65-21.97 1.37-14.77-0.44-40.42 2.56-50.73-3.53-9.61-5.67-21.23-33.15-15.12-38.87z" fill-rule="evenodd" transform="matrix(.88229 0 0 .88229 21.843 12.896)" stroke-linecap="round" fill="#fff"/>
    <path id="path2204" stroke-linejoin="round" d="m292.15 325.56c-26.81-1.36-55.31-8.65-80.42-4.07-13.91 2.54-28.31 13.77-36.65 25.45-13.71 19.2-23.92 43.67-29.52 67.18-7.64 32.13-7.95 66.44-10.18 99.76-1.51 22.66-10.24 49.74-1.01 68.2 11.13 22.26 37 45.66 62.09 53.95 52.95 17.5 114.69 15.61 172.03 23.41 2.71-35.96 8.9-72.05 8.14-107.9-0.6-28.62-8.14-57-12.21-85.5-36.31-5.43-72.61-10.86-108.92-16.29" fill-rule="evenodd" transform="matrix(.88229 0 0 .88229 21.843 12.896)" stroke-linecap="round" fill="#fff"/>
    <path id="path2206" stroke-linejoin="round" d="m414.3 558.67c1.35-10.52 3.73-16.97 5.09-27.49 33.59-27.82 66.16-63.79 99.75-91.61 47.51-28.84 90.94-0.68 106.89 25.45 13.91-8.48 56.32 10.52 62.09 25.45 3.39 7.46 3.73 8.82 7.12 16.28-93.64 17.31-187.29 34.61-280.94 51.92z" fill-rule="evenodd" transform="matrix(.88229 0 0 .88229 21.843 12.896)" stroke-linecap="round" fill="#fff"/>
    <path id="path2205" stroke-linejoin="round" d="m396.99 574.95c46.83-40.37 93.65-80.75 140.48-121.13 39.36-13.91 61.41 31.22 90.59 31.56 15.95-23.76 54.29 14.59 81.44 29.52-51.92 15.27-102.82 37.66-140.48 54.96-24.43-14.93-57-2.37-73.29 16.29h-21.38c-15.6-15.95-44.45-27.82-77.36-11.2z" fill-rule="evenodd" transform="matrix(.88229 0 0 .88229 21.843 12.896)" stroke-linecap="round" fill="#323232"/>
    <path id="path2212" stroke-linejoin="round" d="m532.45 621.32c19.27 4.13 39.73-24.85 47.11-52.01 1.4-5.15 0.5-12.22 2.72-16.55 2.01-3.94 8.14-4.16 9.96-8.27 2.71-6.13 5.83-16.17 3.62-22.46-4.43-12.62-14.48-25.6-23.55-34.28-4.52-4.32-12.87-6.62-17.21-4.73-2.91 1.27-4.46 9.46-7.25 9.46-5.37 0-10.67-7.81-17.21-9.46-2.82-0.71-7.9 3.93-8.15 7.1-0.35 4.32 4.16 11.13 3.62 14.18-0.37 2.07-9.04-5.12-13.59 2.36-4.59 7.55 9.94 21.34 9.06 23.64-0.63 1.64-10.87-3.54-12.68-2.36s-0.3 7.04 0.9 14.18c0.98 5.82 5.91 16.08 9.06 21.28 2.58 4.26 9.18 5.5 9.97 10.64 1.02 6.68-1.45 14.28-0.91 21.28 0.67 8.76 0 25.03 4.53 26z" fill-rule="evenodd" transform="matrix(.88229 0 0 .88229 21.843 12.896)" stroke-linecap="round" fill="#fff"/>
  </g>
  <metadata>
    <rdf:RDF>
      <cc:Work>
        <dc:format>image/svg+xml</dc:format>
        <dc:type rdf:resource="http://purl.org/dc/dcmitype/StillImage"/>
        <cc:license rdf:resource="http://creativecommons.org/licenses/publicdomain/"/>
        <dc:publisher>
          <cc:Agent rdf:about="http://openclipart.org/">
            <dc:title>Openclipart</dc:title>
          </cc:Agent>
        </dc:publisher>
        <dc:title>deacon</dc:title>
        <dc:date>2008-08-20T17:52:48</dc:date>
        <dc:description>bible, bible, catholic, catholic, christian, christian, church, church, clergy, clergy, clip art, clipart, deacon, deacon, image, media, png, public domain, religion, religion, religious, religious, svg, </dc:description>
        <dc:source>http://openclipart.org/detail/18522/deacon-by-aj</dc:source>
        <dc:creator>
          <cc:Agent>
            <dc:title>AJ</dc:title>
          </cc:Agent>
        </dc:creator>
        <dc:subject>
          <rdf:Bag>
            <rdf:li>bible</rdf:li>
            <rdf:li>catholic</rdf:li>
            <rdf:li>christian</rdf:li>
            <rdf:li>church</rdf:li>
            <rdf:li>clergy</rdf:li>
            <rdf:li>clip art</rdf:li>
            <rdf:li>clipart</rdf:li>
            <rdf:li>deacon</rdf:li>
            <rdf:li>image</rdf:li>
            <rdf:li>media</rdf:li>
            <rdf:li>png</rdf:li>
            <rdf:li>public domain</rdf:li>
            <rdf:li>religion</rdf:li>
            <rdf:li>religious</rdf:li>
            <rdf:li>svg</rdf:li>
          </rdf:Bag>
        </dc:subject>
      </cc:Work>
      <cc:License rdf:about="http://creativecommons.org/licenses/publicdomain/">
        <cc:permits rdf:resource="http://creativecommons.org/ns#Reproduction"/>
        <cc:permits rdf:resource="http://creativecommons.org/ns#Distribution"/>
        <cc:permits rdf:resource="http://creativecommons.org/ns#DerivativeWorks"/>
      </cc:License>
    </rdf:RDF>
  </metadata>
</svg>
