<?xml version="1.0"?>
<svg xmlns:rdf="http://www.w3.org/1999/02/22-rdf-syntax-ns#" xmlns="http://www.w3.org/2000/svg" xmlns:cc="http://creativecommons.org/ns#" xmlns:dc="http://purl.org/dc/elements/1.1/" xmlns:svg="http://www.w3.org/2000/svg" id="svg1" viewBox="0 0 659.38 707.33" version="1.0">
  <g id="g1798" stroke="#000" transform="translate(-99.483 -163.09)">
    <path id="path1795" stroke-linejoin="round" d="m104.37 678.79c13.67 38.15 21.06 78.41 45.34 110.85 14.03 18.74 54.05 23.64 77.74 19.44 12.78-2.27 32.28-5.11 35.99-16.56 13.08-40.37 43.26-102.39 14.4-138.92l-70.54-89.25-102.93 114.44z" fill-rule="evenodd" stroke-linecap="round" stroke-width="5" fill="#fff"/>
    <path id="path1793" stroke-linejoin="round" d="m269.2 683.11c-5.25 15.55-9.41 64.98-10.8 97.17-0.29 6.68 0.93 15.12 5.76 19.44 35.46 31.7 93.87 49.99 143.96 53.98 57.54 4.59 86.68-0.73 129.56-5.04 26.46-2.65 78.25 10.85 78.45-15.83l1.44-191.46-328.22-18-20.15 59.74z" fill-rule="evenodd" stroke-linecap="round" stroke-width="5" fill="#b4b4b4"/>
    <path id="path1794" fill-rule="evenodd" stroke-width="5" fill="#b4b4b4" d="m208.02 573.71c-12.71 27.88-33.38 61.37-56.15 84.93-11.3 11.71-39.33 26.59-46.06 20.87-7.671-6.51-2.28-39.72 2.88-57.58 4.2-14.53 13.05-31.13 25.19-39.59 17.13-11.93 43.03-19.31 62.62-21.59 5.13-0.6 13.68 8.21 11.52 12.96z"/>
    <path id="path1786" stroke-linejoin="round" d="m191.46 558.59c30.71-34.31 57.77-73.28 92.13-102.93 19.87-17.14 45.68-28.24 70.54-37.43 52.4-19.36 108.98-49.07 161.23-48.22 36.29 0.59 74.94 28.24 104.37 52.54 36.55 30.17 64.39 72.56 93.58 110.85 8.48 11.13 12.95 24.95 19.43 37.43-36.23 29.75-68.24 67.06-108.69 89.25-43.53 23.88-93.99 43.07-143.23 48.95-63.29 7.55-142.97 18.07-194.35-8.64-45.07-23.44-63.34-94.53-95.01-141.8z" fill-rule="evenodd" stroke-linecap="round" stroke-width="5" fill="#fff"/>
    <path id="path1783" stroke-linejoin="round" d="m328.94 231.81l-4.32-10.8 1.44-6.48 29.51-11.51 89.98-5.04 53.98 49.66 6.48 17.28 4.32 20.87-3.6 1.44 3.6 12.24-14.4 11.52-125.24 14.39-41.75-93.57z" fill-rule="evenodd" stroke-linecap="round" stroke-width="5" fill="#b4b4b4"/>
    <path id="path1788" stroke-linejoin="round" d="m377.14 424.81l10.18 34.61" stroke-linecap="round" stroke-width="5" fill="none"/>
    <path id="path1159" fill-rule="evenodd" stroke-width="5" fill="#fff" d="m347.66 417.51c-4.89-2.94-6.35-11-8.64-16.55-5.15-12.45-6.05-25.56-10.8-38.15-0.77-2.05-3.86-3.03-4.32-5.04-0.74-3.27 1.05-7.23 0.72-10.8-0.63-6.75-3.04-13.39-3.6-20.15-0.4-5 0.43-10.08 0.72-15.11 0.19-3.13-0.21-4.16-1.44-6.48-1.17-2.24-4.63-4.86-5.75-7.2-1.52-3.18-0.73-8.33 0-12.24 0.47-2.57 3.18-4.57 3.59-7.2 1.75-11.05 0.67-22.92 2.88-33.82 0.91-4.45 2.63-10.17 6.48-12.24 12.22-6.57 23.18-9.08 37.43-11.52 12.38-2.12 28.57-3 40.31 0 7.93 2.03 18.98 6.17 23.03 12.96 4.11 6.89 3.75 17.37 3.6 25.91-0.09 5.13 2.16 7.19 2.16 12.24 0 5.27 1.82 11.76 5.04 15.83 4.94 6.25 8.54 12.99 15.83 14.4 6.39 1.23 11.38-0.51 18-3.6 4.66-2.18 8.22-7.42 12.95-8.64 4.62-1.18 10.72-0.32 15.12 1.44 2.8 1.12 5.61 4.3 6.48 7.2 1.29 4.3 1.32 9.9 0 14.39-2.28 7.75-6.5 15.35-10.8 22.32-2.66 4.3-8.52 7.11-10.08 11.51-1.32 3.76 5.65 9.71 4.32 13.68-3.23 9.71-11.33 19.32-17.99 27.35-7.26 8.76-15.48 16.87-25.19 23.04-12.6 7.99-23.63 15.18-41.75 19.43-4.34 1.02-9.26 0.21-13.68-0.72-4.7-0.99-9.04-3.6-13.67-5.04-9.28-2.88-23.12-2.47-30.95-7.2z"/>
    <path id="path1782" stroke-linejoin="round" d="m347.66 208.06c8.63-5.04 19.43-2.16 29.51-0.72 40.54 5.03 82.53 29.51 128.12 54.7 3.12-33.11-21.84-72.7-53.27-84.21l3.6-10.08-5.76-2.16c-1.19 3.84-4.55 4.08-5.75 7.92-37.19-13.44-82.3-1.68-96.45 34.55z" fill-rule="evenodd" stroke-linecap="round" stroke-width="5" fill="#fff"/>
    <path id="path1784" stroke-linejoin="round" d="m488.01 348.41c3.6-0.96 7.2-1.92 10.8-2.88 3.84-0.48 12.72 15.6 13.68 25.92-17.04 36.95-39.83 64.54-77.02 93.57v-10.08c-6.72 0.48-10.56 0.24-17.28 0.72 0.72-7.44 0-21.35 0.72-28.79 23.76-9.84 41.99-26.15 53.27-40.31 11.27-14.15 11.27-24.71 15.83-38.15z" fill-rule="evenodd" stroke-linecap="round" stroke-width="5" fill="#fff"/>
    <path id="path1785" stroke-linejoin="round" d="m372.13 452.06c21.11 0.96 42.23 1.92 63.34 2.88-6 81.34-11.28 166.99-7.2 248.33-37.91-1.68-75.82-3.36-113.72-5.04-2.16-3.84-4.32-7.68-6.48-11.52 31.43-64.54 49.18-152.83 64.06-234.65z" fill-rule="evenodd" stroke-linecap="round" stroke-width="5" fill="#fff"/>
    <path id="path1787" stroke-linejoin="round" d="m355.49 422.43c-6.24 59.74-48.91 162.25-12.87 177.19 25.79 10.69 38.42-35.74 43.9-51.83-2.61 18.01 20.36 62.96 37.43 62.63 39.72-0.76 40.31-132.68 91.41-239.69" stroke-linecap="round" stroke-width="7.5" fill="none"/>
    <path id="path1789" fill="none" stroke-width="10" stroke-linecap="round" d="m385.25 560.28l-11.13 118.27"/>
    <path id="path1790" fill="none" stroke-width="10" stroke-linecap="round" d="m353.47 613.29l54.6 7.2"/>
    <path id="path1791" stroke-linejoin="round" d="m417.86 685.91c-17.12 0.26-59.07-8.1-91.11-9.16-3.58-0.12-9.06 2.63-9.67 5.09-2.94 11.88 10.86 12.55 10.18 15.27-0.51 2.03-9.51-1.87-13.74-1.02-2.56 0.51-6.52 2.77-6.61 5.09-0.24 5.73 2.81 6.36 4.58 8.65 1.11 1.44 7.43 2.58 8.14 4.07 1.15 2.41-4.4 2-4.58 8.65-0.2 7.31 5.65 7.23 7.12 8.66 3.62 3.49 11.06 4.2 13.24 6.61 0.88 0.98-3.7 2.01-4.07 3.57-0.48 2 1.13 8.54 3.56 10.17 8.93 6.01 20.06 9.3 30.54 12.73 8.69 2.85 18.28 3.03 27.48 4.07 13.36 1.51 26.78 3.09 40.21 3.56 15.24 0.54 30.54-0.34 45.8-0.51 0 0 62.61-8.65 62.1-11.19-0.51-2.55-2.55-55.48-2.55-55.48l-61.07 6.62c-13.6 1.47-24.36-26.38-34.61-34.61-9.6-7.71-21.57-10.6-32.07-17.31-5.96-3.81-11.76-10.43-17.3-14.25-2.09-1.44-6.81-1.74-8.14 0-2.57 3.35-2.88 10.27-1.53 14.76 1.71 5.69 5.19 12.54 10.69 15.78 8.58 5.07 14.1 11.62 23.41 10.18z" fill-rule="evenodd" stroke-width="5" fill="#fff"/>
    <path id="path1792" fill-rule="evenodd" stroke-width="5" fill="#fff" d="m472.18 703.27c4.86 49.93 14.08 102.87 24.47 152.59 0.89 4.26 5.17 8.86 9.36 9.36 19.81 2.38 43.06 4.96 62.62-0.72 29.15-8.47 58.64-23.51 83.49-41.75 38.25-28.07 86.88-53.24 101.49-94.29 5.8-16.29 2.76-76-12.23-103.65-6.8-12.54-15.6-29.03-25.2-39.59l-74.85 65.5c-9.3 8.14-10.59 18.15-18.72 21.6-7.71 3.27-17.8 0.63-28.79-1.44-5.56-1.05-12.37 1.57-17.27 4.32-3.26 1.81-7.47 5.24-10.8 6.47-5.07 1.89-9.07 4.51-14.4 2.88-3.31-1.01-8.26-3.52-11.51-3.6-6.82-0.16-11.96-0.7-18.72 2.88-4.99 2.65-7.75 10.31-12.95 11.52-8.24 1.91-19.27-3.94-27.35-2.16-3.92 0.86-9.06 5.79-8.64 10.08z"/>
    <path id="path1796" stroke-linejoin="round" d="m139.64 621.21c-4.61-1.8 1.65-17.48 0.72-25.91-0.5-4.52-4.3-8.54-5.04-12.96-0.46-2.78 2.42-6.1 1.44-8.63-1.9-4.91-8.71-8.36-10.08-13.68-3.19-12.44-0.88-26.86-3.6-39.59-1.12-5.26-6.67-9.27-7.91-14.39-1.15-4.72-1.27-11.76 0.72-15.12 1.13-1.92 7.29 1.16 8.63-0.72 2.26-3.16-0.8-11.65 2.16-14.39 3.76-3.5 16.8-1.09 18-4.32 1.2-3.25-7.13-10.13-10.8-15.12-4.97-6.77-13.5-13.54-15.12-20.15-0.78-3.22 5.04-10.93 7.92-9.36 10.79 5.87 27.82 24.48 33.11 31.67 1.58 2.15-9.77-16.4-15.11-25.19-2.09-3.44-6.82-8.46-7.2-11.52-0.34-2.7 3.73-7.26 6.48-8.64 2.05-1.02 6.06-0.37 7.91 1.44 9.43 9.23 18.65 20.24 25.92 31.67 7.37 11.61 14.18 24.32 17.99 37.43 3.86 13.28 4.73 27.86 5.04 41.75 0.17 7.94-1.64 16.05-3.6 23.75-1.4 5.49-5.57 10.38-6.48 15.84-0.77 4.62 3.15 10.13 1.44 14.39-4.05 10.13-10.19 22.02-18.71 28.8-8.99 7.14-27.4 15.47-33.83 12.95z" fill-rule="evenodd" stroke-linecap="round" stroke-width="5" fill="#fff"/>
  </g>
  <metadata>
    <rdf:RDF>
      <cc:Work>
        <dc:format>image/svg+xml</dc:format>
        <dc:type rdf:resource="http://purl.org/dc/dcmitype/StillImage"/>
        <cc:license rdf:resource="http://creativecommons.org/licenses/publicdomain/"/>
        <dc:publisher>
          <cc:Agent rdf:about="http://openclipart.org/">
            <dc:title>Openclipart</dc:title>
          </cc:Agent>
        </dc:publisher>
        <dc:title>pope</dc:title>
        <dc:date>2008-08-20T17:53:24</dc:date>
        <dc:description>black and white, catholic, christian, church, clip art, clipart, famous-people, pope, religion, religious, </dc:description>
        <dc:source>http://openclipart.org/detail/18523/pope-by-aj</dc:source>
        <dc:creator>
          <cc:Agent>
            <dc:title>AJ</dc:title>
          </cc:Agent>
        </dc:creator>
        <dc:subject>
          <rdf:Bag>
            <rdf:li>black and white</rdf:li>
            <rdf:li>catholic</rdf:li>
            <rdf:li>christian</rdf:li>
            <rdf:li>church</rdf:li>
            <rdf:li>clip art</rdf:li>
            <rdf:li>clipart</rdf:li>
            <rdf:li>famous-people</rdf:li>
            <rdf:li>pope</rdf:li>
            <rdf:li>religion</rdf:li>
            <rdf:li>religious</rdf:li>
          </rdf:Bag>
        </dc:subject>
      </cc:Work>
      <cc:License rdf:about="http://creativecommons.org/licenses/publicdomain/">
        <cc:permits rdf:resource="http://creativecommons.org/ns#Reproduction"/>
        <cc:permits rdf:resource="http://creativecommons.org/ns#Distribution"/>
        <cc:permits rdf:resource="http://creativecommons.org/ns#DerivativeWorks"/>
      </cc:License>
    </rdf:RDF>
  </metadata>
</svg>
