<?xml version="1.0"?>
<svg xmlns:rdf="http://www.w3.org/1999/02/22-rdf-syntax-ns#" xmlns="http://www.w3.org/2000/svg" xmlns:cc="http://creativecommons.org/ns#" xmlns:dc="http://purl.org/dc/elements/1.1/" xmlns:svg="http://www.w3.org/2000/svg" id="svg1901" viewBox="0 0 589.41 684.52" version="1.0">
  <g id="g2129" stroke-linejoin="round" transform="matrix(.86594 0 0 .86594 -43.336 -107.48)" stroke="#000" stroke-linecap="round" stroke-width="5.774">
    <path id="path2128" fill-rule="evenodd" fill="#323232" d="m430.58 610.61l63.11 10.3c44.72 7.29 73.82 30.96 102.82 43.24 10.7 4.53 51.13 17.12 59.04 24.71 18.55 17.8 54.76 73.96 66.16 170.91l6.11 51.94-229.04-1.03-68.2-300.07z"/>
    <path id="path2119" fill-rule="evenodd" fill="#b4b4b4" d="m221.91 348.97c-12.93-3.5-15.69-26.01-15.27-39.69 0.94-30.77 5.05-66.63 19.34-93.65 13.87-26.25 39.83-50.09 65.15-66.17 21.16-13.44 49.37-23.34 74.31-22.39 37.83 1.43 86.06 15.75 119.09 33.59 22.27 12.02 38.63 34.12 52.94 55.98 10.12 15.47 11.95 33.83 15.26 51.92 4.15 22.63 5.66 47.92 1.02 70.24-4.18 20.1-8.62 56.42-27.48 57-91.76 2.81-210.75-21.48-304.36-46.83z"/>
    <path id="rect2122" fill="#646464" d="m192.96 600.41h244.51l100 310.96h-369.51l25-310.96z"/>
    <path id="rect2125" fill="#fff" d="m301.31 637.05c32.23 0 78.72 4.07 110.95 4.07-1.7 22.73-15.61 35.29-17.3 58.02-20.7 8.82-59.72 10.52-85.51-3.05-3.73-21.38-4.41-37.67-8.14-59.04z"/>
    <path id="path2121" fill-rule="evenodd" fill="#323232" d="m285.02 910.87l-95.69-350.17-136.4 47.85 0.002 302.32h232.09z"/>
    <path id="path2124" fill-rule="evenodd" fill="#323232" d="m187.3 564.77c7.12-12.89 14.25-25.78 21.38-38.68l12.21 3.06c67.86 28.84 135.72 57.68 203.59 86.52 4.07-3.39 10.18-12.89 14.25-16.29 2.71 7.47 8.48 20.02 11.19 27.49-4.75 17.3-9.03 33.86-19.34 46.82-10.73 13.5-30.53 29.52-48.86 33.59 6.79-9.5 8.77-16.12 12.22-26.46 2.32-6.97 6.11-17.65 5.09-25.45-21.38-1.36-42.76-2.71-64.13-4.07-9.84 17.64-15.61 35.29-17.31 52.93-57.68-32.23-109.25-73.63-130.29-139.46z"/>
    <path id="path2118" fill-rule="evenodd" fill="#fff" d="m228.02 345.92c-6.45-4.75-12.4-12.46-19.34-14.25-4.94-1.27-13.89 0.91-16.29 5.09-4.04 7.02-4.16 19.09-3.06 28.5 3.31 28.25 8.67 57.38 16.29 84.49 1.54 5.46 7.47 8.82 11.2 13.23 3.05 16.97 7.82 33.88 9.16 50.9 0.69 8.77-2.04 17.64-3.05 26.46 7.63 29.35 22.91 48.91 43.26 64.13 25.93 19.41 51.38 41.71 78.89 52.94 14.91 6.08 36.88 6.65 51.91 1.01 12.11-4.54 19.34-22.39 29.52-31.55 0.34-3.73-1.1-8.17 1.02-11.2 20.27-28.87 46.28-55.01 66.16-84.49 8.28-12.26 12.22-27.14 18.33-40.71 2.37-2.04 7.38 3.51 9.67-6.62 9.53-42.32 27.07-70.01 36.13-111.46 1.22-5.56-1.46-20.11-9.67-17.31-5.59 1.91-11.21 10.03-15.26 10.18-5.11 0.19-6.01 0.05-6.62-4.58-1.09-8.27 6.73-22.52 6.11-33.08-2.1-35.59-3.97-77.15-19.34-107.9-10.75-21.5-36.81-37.75-59.04-48.86-21.21-10.6-47.87-17.76-71.26-16.29-25.13 1.58-52.62 12.14-74.31 25.45-18.69 11.46-36.13 29.75-46.82 48.86-11.71 20.93-13.55 47.51-20.36 71.25-4.38 15.28-8.82 30.54-13.23 45.81z"/>
  </g>
  <metadata>
    <rdf:RDF>
      <cc:Work>
        <dc:format>image/svg+xml</dc:format>
        <dc:type rdf:resource="http://purl.org/dc/dcmitype/StillImage"/>
        <cc:license rdf:resource="http://creativecommons.org/licenses/publicdomain/"/>
        <dc:publisher>
          <cc:Agent rdf:about="http://openclipart.org/">
            <dc:title>Openclipart</dc:title>
          </cc:Agent>
        </dc:publisher>
        <dc:title>priest</dc:title>
        <dc:date>2008-08-20T17:54:01</dc:date>
        <dc:description>christian, christian, church, church, clergy, clergy, clerical collar, clerical collar, clip art, clipart, image, media, png, priest, priest, public domain, religion, religion, religious, religious, svg, </dc:description>
        <dc:source>http://openclipart.org/detail/18524/priest-by-aj</dc:source>
        <dc:creator>
          <cc:Agent>
            <dc:title>AJ</dc:title>
          </cc:Agent>
        </dc:creator>
        <dc:subject>
          <rdf:Bag>
            <rdf:li>christian</rdf:li>
            <rdf:li>church</rdf:li>
            <rdf:li>clergy</rdf:li>
            <rdf:li>clerical collar</rdf:li>
            <rdf:li>clip art</rdf:li>
            <rdf:li>clipart</rdf:li>
            <rdf:li>image</rdf:li>
            <rdf:li>media</rdf:li>
            <rdf:li>png</rdf:li>
            <rdf:li>priest</rdf:li>
            <rdf:li>public domain</rdf:li>
            <rdf:li>religion</rdf:li>
            <rdf:li>religious</rdf:li>
            <rdf:li>svg</rdf:li>
          </rdf:Bag>
        </dc:subject>
      </cc:Work>
      <cc:License rdf:about="http://creativecommons.org/licenses/publicdomain/">
        <cc:permits rdf:resource="http://creativecommons.org/ns#Reproduction"/>
        <cc:permits rdf:resource="http://creativecommons.org/ns#Distribution"/>
        <cc:permits rdf:resource="http://creativecommons.org/ns#DerivativeWorks"/>
      </cc:License>
    </rdf:RDF>
  </metadata>
</svg>
